<!-- Generated by IcoMoon.io -->
<svg version="1.1" xmlns="http://www.w3.org/2000/svg" width="71" height="32" viewBox="0 0 71 32">
<title>empty-noitems-big</title>
<path fill="#005cb9" opacity="0.1" d="M56.914 31.984s7.521-8.759 2.247-16.93c-1.968-3.049-6.993-4.761-11.61-3.372-2.728 0.82-6.865 0.699-10.908-6.532-5.513-9.862-28.397-5.378-23.93 11.901 1.881 7.278-5.132 7.609-1.658 14.949z"></path>
<path fill="#5b7c8c" d="M0.148 31.704h70.815c0.082 0 0.148 0.066 0.148 0.148v0 0c0 0.082-0.066 0.148-0.148 0.148v0h-70.815c-0.082 0-0.148-0.066-0.148-0.148v0 0c0-0.082 0.066-0.148 0.148-0.148v0z"></path>
<path fill="#233862" d="M25.524 31.687c0.018 0.008 0.039 0.014 0.061 0.017l0.001 0h2.568c-0.052-0.184-0.216-0.317-0.411-0.323l-0.001-0c-0.406-0.066-1.109-0.302-1.266-0.82-0.005-0.017-0.009-0.034-0.013-0.052-0.124-0.555-1.030 0.17-1.030 0.17s-0.003 0.022-0.007 0.059c-0.020 0.202-0.075 0.862 0.097 0.948z"></path>
<path fill="#233862" d="M22.549 31.687c0.018 0.008 0.039 0.014 0.061 0.017l0.001 0h2.568c-0.052-0.184-0.216-0.317-0.411-0.323l-0.001-0c-0.373-0.059-0.998-0.265-1.218-0.702-0.025-0.049-0.046-0.106-0.060-0.165l-0.001-0.005c-0.124-0.555-1.030 0.17-1.030 0.17s-0.005 0.037-0.010 0.097c-0.024 0.236-0.062 0.829 0.101 0.91z"></path>
<path fill="#1e4d71" d="M23.793 16.613s0.316 5.865 0.521 8.652c0 0.012 0.001 0.023 0.004 0.035l-0-0.001c-0 0.005-0 0.012-0 0.018 0 0.029 0.001 0.058 0.004 0.086l-0-0.004c0.052 0.628 0.13 1.244 0.223 1.83v0.007q0.022 0.128 0.045 0.257c0.215 1.287 0.464 2.375 0.771 3.438l-0.053-0.214c0.123 0.038 0.264 0.060 0.41 0.060 0.334 0 0.641-0.115 0.884-0.308l-0.003 0.002s0.182-1.811 0.227-2.945c0.026-0.652 0.29-4.095 0.51-6.895 0.164-2.064 0.227-3.786 0.227-3.786z"></path>
<path fill="rgba(0, 0, 0, 0.36)" d="M23.793 16.613s0.316 5.865 0.521 8.652c0 0.012 0.001 0.023 0.004 0.035l-0-0.001c0.022 0.207 0.164 1.38 0.227 1.93v0.007q0.022 0.128 0.045 0.257l2.745-6.862c0.164-2.064 0.227-3.786 0.227-3.786z"></path>
<path fill="#1e4d71" d="M27.309 16.509s-1.75 5.302-2.67 8.593c-0.504 1.642-0.833 3.54-0.913 5.503l-0.001 0.045s-1.436 0.273-1.565 0.030c0 0-0.425-6.393 0.441-7.963 0.49-0.887 0.825-3.357 0.722-4.184s-0.188-2.483-0.188-2.483z"></path>
<path fill="#eeb399" d="M27.473 8.431s1.179 1.452 2.187 1.581c-0.082-0.29-0.209-0.543-0.376-0.765l0.004 0.006c0.067-0.097 0.123-0.186 0.178-0.267 0.245-0.391 0.361-0.625 0.361-0.625l-0.446-0.9-0.272-0.551c-0.284 0.732-0.879 1.288-1.618 1.515l-0.018 0.005z"></path>
<path fill="#ab7041" d="M29.804 19.095l0.012 0.316c0.185 0.113 0.307 0.314 0.307 0.543 0 0.175-0.071 0.334-0.186 0.448v0s-0.225 0.237-0.366 0.065-0.055-0.123-0.259-0.361c-0.113-0.104-0.183-0.252-0.183-0.417 0-0.113 0.033-0.218 0.090-0.306l-0.001 0.002 0.059-0.243z"></path>
<path fill="#3f88be" d="M29.489 19.382c0.21-0.088 0.39-0.19 0.557-0.31l-0.008 0.006s-0.716-2.81-0.753-3.084 0.519-4.151 0.519-4.151l-2.305-1.674s0.124 5.342 0.231 6.035c0.178 1.146 1.316 3.25 1.316 3.25 0.013 0 0.028 0.001 0.043 0.001 0.144 0 0.282-0.026 0.409-0.075l-0.008 0.003z"></path>
<path fill="#66b4ed" d="M23.199 16.401c0.475 0.575 1.033 1.061 1.66 1.445l0.029 0.016c0.773 0.461 1.765 0.902 2.124 0.825 0.182-0.038 0.343-0.108 0.485-0.204l-0.005 0.003c0.231-0.795 0.478-1.457 0.765-2.098l-0.041 0.101c0.021-0.041 0.042-0.092 0.060-0.143l0.003-0.009 0.011-0.019c0.22-0.491 0.439-1.015 0.655-1.536 0.376-0.823 0.722-1.805 0.984-2.821l0.028-0.128c0.032-0.174 0.051-0.374 0.051-0.579 0-0.501-0.111-0.976-0.308-1.401l0.009 0.021-0.178-0.409c-0.364-0.081-0.673-0.277-0.894-0.548l-0.002-0.003c-0.267-0.331-0.566-0.707-0.647-0.692-0.863 0.186-1.818 1.343-2.599 2.868-0.104 0.193-0.201 0.394-0.294 0.599-0.111 0.245-0.216 0.495-0.316 0.751-0.45 1.122-0.895 2.045-1.393 2.936l0.066-0.128c-0.067 0.123-0.13 0.237-0.186 0.338-0.1 0.19-0.182 0.338-0.235 0.443-0.049 0.097 0.1 0.294 0.17 0.372z"></path>
<path fill="rgba(0, 0, 0, 0.3)" d="M23.446 15.219c2.351-0.703 3.47-4.496 3.47-4.496l-0.759-0.35s-0.32 0.271-0.774 0.688c-0.104 0.193-0.201 0.394-0.294 0.599-0.111 0.245-0.216 0.495-0.316 0.751-0.45 1.121-0.895 2.045-1.393 2.936l0.066-0.128z"></path>
<path fill="#eeb399" d="M24.845 14.186l0.083 0.305c0.257 0.085 0.438 0.323 0.438 0.603 0 0.124-0.036 0.24-0.097 0.338l0.002-0.003s-0.166 0.282-0.342 0.146-0.081-0.108-0.334-0.293c-0.173-0.099-0.288-0.283-0.288-0.493 0-0.067 0.012-0.132 0.033-0.192l-0.001 0.004 0.004-0.25z"></path>
<path fill="#66b4ed" d="M24.71 14.785c0.17-0.068 0.297-0.21 0.344-0.384l0.001-0.004s-0.746-2.937-0.5-3.063 3.193-0.559 3.193-0.559 0.886-0.187 0.857-0.989c0-0.015 0.001-0.033 0.001-0.051 0-0.584-0.236-1.113-0.619-1.497l0 0s-4.502 1.681-4.884 2.27c-0.574 0.884 1.092 4.249 1.092 4.249 0.085 0.043 0.185 0.068 0.29 0.068 0.081 0 0.158-0.015 0.229-0.041l-0.005 0.001z"></path>
<path fill="rgba(0, 0, 0, 0.17)" d="M28.854 7.471s0.097 1.105 0.61 1.513c0.245-0.391 0.361-0.625 0.361-0.625l-0.446-0.9z"></path>
<path fill="#eeb399" d="M30.327 8.461s-1.847-0.506-1.514-1.652 0.319-1.982 1.511-1.707 1.294 0.778 1.276 1.187-0.784 2.273-1.273 2.171z"></path>
<path fill="#233862" d="M28.814 7.13c0.355-0.683 1.058-1.142 1.868-1.142 0.258 0 0.505 0.047 0.734 0.132l-0.015-0.005c0.657 0.212 0.687 0.032 1.153-0.538 0 0-1.196-0.859-2.205-1.080-2.117-0.465-1.631 2.306-1.535 2.633z"></path>
<path fill="#dec380" d="M29.333 31.704c-0.491 0-0.889-0.398-0.889-0.889v0-10.37h-4.148l4.148-5.333h17.857l3.476 5.333h-3.556v10.37c0 0.491-0.398 0.889-0.889 0.889v0z"></path>
<path fill="rgba(0, 0, 0, 0.12)" d="M28.444 15.111h3.259v16.593h-2.37c-0.491 0-0.889-0.398-0.889-0.889v0-15.704z"></path>
<path fill="#000" opacity="0.5" d="M31.704 15.117l3.451 7.401h11.063v-2.068l-11.064 0.002z"></path>
<path fill="rgba(0, 0, 0, 0.49)" d="M28.444 15.111l-4.148 5.333h4.148z"></path>
<path fill="rgba(255, 255, 255, 0.25)" d="M31.704 15.111l3.476 5.333h14.598l-3.476-5.333z"></path>
</svg>
